%TF.GenerationSoftware,KiCad,Pcbnew,(5.1.0-0)*%
%TF.CreationDate,2019-08-26T10:00:45-05:00*%
%TF.ProjectId,impedance_777,696d7065-6461-46e6-9365-5f3737372e6b,1*%
%TF.SameCoordinates,Original*%
%TF.FileFunction,Soldermask,Bot*%
%TF.FilePolarity,Negative*%
%FSLAX46Y46*%
G04 Gerber Fmt 4.6, Leading zero omitted, Abs format (unit mm)*
G04 Created by KiCad (PCBNEW (5.1.0-0)) date 2019-08-26 10:00:45*
%MOMM*%
%LPD*%
G04 APERTURE LIST*
%ADD10C,0.100000*%
G04 APERTURE END LIST*
D10*
G36*
X215385978Y-144768289D02*
G01*
X215472672Y-144785533D01*
X215717665Y-144887013D01*
X215938153Y-145034338D01*
X216125662Y-145221847D01*
X216272987Y-145442335D01*
X216374467Y-145687328D01*
X216426200Y-145947411D01*
X216426200Y-146212589D01*
X216374467Y-146472672D01*
X216272987Y-146717665D01*
X216125662Y-146938153D01*
X215938153Y-147125662D01*
X215717665Y-147272987D01*
X215472672Y-147374467D01*
X215385978Y-147391711D01*
X215212591Y-147426200D01*
X214947409Y-147426200D01*
X214774022Y-147391711D01*
X214687328Y-147374467D01*
X214442335Y-147272987D01*
X214221847Y-147125662D01*
X214034338Y-146938153D01*
X213887013Y-146717665D01*
X213785533Y-146472672D01*
X213733800Y-146212589D01*
X213733800Y-145947411D01*
X213785533Y-145687328D01*
X213887013Y-145442335D01*
X214034338Y-145221847D01*
X214221847Y-145034338D01*
X214442335Y-144887013D01*
X214687328Y-144785533D01*
X214774022Y-144768289D01*
X214947409Y-144733800D01*
X215212591Y-144733800D01*
X215385978Y-144768289D01*
X215385978Y-144768289D01*
G37*
G36*
X210225970Y-140255071D02*
G01*
X210366959Y-140313470D01*
X210493840Y-140398249D01*
X210601751Y-140506160D01*
X210686530Y-140633041D01*
X210744929Y-140774030D01*
X210774700Y-140923697D01*
X210774700Y-141076303D01*
X210744929Y-141225970D01*
X210686530Y-141366959D01*
X210601751Y-141493840D01*
X210493840Y-141601751D01*
X210366959Y-141686530D01*
X210225970Y-141744929D01*
X210076303Y-141774700D01*
X209923697Y-141774700D01*
X209774030Y-141744929D01*
X209633041Y-141686530D01*
X209506160Y-141601751D01*
X209398249Y-141493840D01*
X209313470Y-141366959D01*
X209255071Y-141225970D01*
X209225300Y-141076303D01*
X209225300Y-140923697D01*
X209255071Y-140774030D01*
X209313470Y-140633041D01*
X209398249Y-140506160D01*
X209506160Y-140398249D01*
X209633041Y-140313470D01*
X209774030Y-140255071D01*
X209923697Y-140225300D01*
X210076303Y-140225300D01*
X210225970Y-140255071D01*
X210225970Y-140255071D01*
G37*
G36*
X210225970Y-137715071D02*
G01*
X210366959Y-137773470D01*
X210493840Y-137858249D01*
X210601751Y-137966160D01*
X210686530Y-138093041D01*
X210744929Y-138234030D01*
X210774700Y-138383697D01*
X210774700Y-138536303D01*
X210744929Y-138685970D01*
X210686530Y-138826959D01*
X210601751Y-138953840D01*
X210493840Y-139061751D01*
X210366959Y-139146530D01*
X210225970Y-139204929D01*
X210076303Y-139234700D01*
X209923697Y-139234700D01*
X209774030Y-139204929D01*
X209633041Y-139146530D01*
X209506160Y-139061751D01*
X209398249Y-138953840D01*
X209313470Y-138826959D01*
X209255071Y-138685970D01*
X209225300Y-138536303D01*
X209225300Y-138383697D01*
X209255071Y-138234030D01*
X209313470Y-138093041D01*
X209398249Y-137966160D01*
X209506160Y-137858249D01*
X209633041Y-137773470D01*
X209774030Y-137715071D01*
X209923697Y-137685300D01*
X210076303Y-137685300D01*
X210225970Y-137715071D01*
X210225970Y-137715071D01*
G37*
G36*
X215385978Y-134608289D02*
G01*
X215472672Y-134625533D01*
X215717665Y-134727013D01*
X215938153Y-134874338D01*
X216125662Y-135061847D01*
X216272987Y-135282335D01*
X216374467Y-135527328D01*
X216426200Y-135787411D01*
X216426200Y-136052589D01*
X216374467Y-136312672D01*
X216272987Y-136557665D01*
X216125662Y-136778153D01*
X215938153Y-136965662D01*
X215717665Y-137112987D01*
X215472672Y-137214467D01*
X215385978Y-137231711D01*
X215212591Y-137266200D01*
X214947409Y-137266200D01*
X214774022Y-137231711D01*
X214687328Y-137214467D01*
X214442335Y-137112987D01*
X214221847Y-136965662D01*
X214034338Y-136778153D01*
X213887013Y-136557665D01*
X213785533Y-136312672D01*
X213733800Y-136052589D01*
X213733800Y-135787411D01*
X213785533Y-135527328D01*
X213887013Y-135282335D01*
X214034338Y-135061847D01*
X214221847Y-134874338D01*
X214442335Y-134727013D01*
X214687328Y-134625533D01*
X214774022Y-134608289D01*
X214947409Y-134573800D01*
X215212591Y-134573800D01*
X215385978Y-134608289D01*
X215385978Y-134608289D01*
G37*
G36*
X215385978Y-123768289D02*
G01*
X215472672Y-123785533D01*
X215717665Y-123887013D01*
X215938153Y-124034338D01*
X216125662Y-124221847D01*
X216272987Y-124442335D01*
X216374467Y-124687328D01*
X216426200Y-124947411D01*
X216426200Y-125212589D01*
X216374467Y-125472672D01*
X216272987Y-125717665D01*
X216125662Y-125938153D01*
X215938153Y-126125662D01*
X215717665Y-126272987D01*
X215472672Y-126374467D01*
X215385978Y-126391711D01*
X215212591Y-126426200D01*
X214947409Y-126426200D01*
X214774022Y-126391711D01*
X214687328Y-126374467D01*
X214442335Y-126272987D01*
X214221847Y-126125662D01*
X214034338Y-125938153D01*
X213887013Y-125717665D01*
X213785533Y-125472672D01*
X213733800Y-125212589D01*
X213733800Y-124947411D01*
X213785533Y-124687328D01*
X213887013Y-124442335D01*
X214034338Y-124221847D01*
X214221847Y-124034338D01*
X214442335Y-123887013D01*
X214687328Y-123785533D01*
X214774022Y-123768289D01*
X214947409Y-123733800D01*
X215212591Y-123733800D01*
X215385978Y-123768289D01*
X215385978Y-123768289D01*
G37*
G36*
X210225970Y-119255071D02*
G01*
X210366959Y-119313470D01*
X210493840Y-119398249D01*
X210601751Y-119506160D01*
X210686530Y-119633041D01*
X210744929Y-119774030D01*
X210774700Y-119923697D01*
X210774700Y-120076303D01*
X210744929Y-120225970D01*
X210686530Y-120366959D01*
X210601751Y-120493840D01*
X210493840Y-120601751D01*
X210366959Y-120686530D01*
X210225970Y-120744929D01*
X210076303Y-120774700D01*
X209923697Y-120774700D01*
X209774030Y-120744929D01*
X209633041Y-120686530D01*
X209506160Y-120601751D01*
X209398249Y-120493840D01*
X209313470Y-120366959D01*
X209255071Y-120225970D01*
X209225300Y-120076303D01*
X209225300Y-119923697D01*
X209255071Y-119774030D01*
X209313470Y-119633041D01*
X209398249Y-119506160D01*
X209506160Y-119398249D01*
X209633041Y-119313470D01*
X209774030Y-119255071D01*
X209923697Y-119225300D01*
X210076303Y-119225300D01*
X210225970Y-119255071D01*
X210225970Y-119255071D01*
G37*
G36*
X210225970Y-116715071D02*
G01*
X210366959Y-116773470D01*
X210493840Y-116858249D01*
X210601751Y-116966160D01*
X210686530Y-117093041D01*
X210744929Y-117234030D01*
X210774700Y-117383697D01*
X210774700Y-117536303D01*
X210744929Y-117685970D01*
X210686530Y-117826959D01*
X210601751Y-117953840D01*
X210493840Y-118061751D01*
X210366959Y-118146530D01*
X210225970Y-118204929D01*
X210076303Y-118234700D01*
X209923697Y-118234700D01*
X209774030Y-118204929D01*
X209633041Y-118146530D01*
X209506160Y-118061751D01*
X209398249Y-117953840D01*
X209313470Y-117826959D01*
X209255071Y-117685970D01*
X209225300Y-117536303D01*
X209225300Y-117383697D01*
X209255071Y-117234030D01*
X209313470Y-117093041D01*
X209398249Y-116966160D01*
X209506160Y-116858249D01*
X209633041Y-116773470D01*
X209774030Y-116715071D01*
X209923697Y-116685300D01*
X210076303Y-116685300D01*
X210225970Y-116715071D01*
X210225970Y-116715071D01*
G37*
G36*
X215385978Y-113608289D02*
G01*
X215472672Y-113625533D01*
X215717665Y-113727013D01*
X215938153Y-113874338D01*
X216125662Y-114061847D01*
X216272987Y-114282335D01*
X216374467Y-114527328D01*
X216426200Y-114787411D01*
X216426200Y-115052589D01*
X216374467Y-115312672D01*
X216272987Y-115557665D01*
X216125662Y-115778153D01*
X215938153Y-115965662D01*
X215717665Y-116112987D01*
X215472672Y-116214467D01*
X215385978Y-116231711D01*
X215212591Y-116266200D01*
X214947409Y-116266200D01*
X214774022Y-116231711D01*
X214687328Y-116214467D01*
X214442335Y-116112987D01*
X214221847Y-115965662D01*
X214034338Y-115778153D01*
X213887013Y-115557665D01*
X213785533Y-115312672D01*
X213733800Y-115052589D01*
X213733800Y-114787411D01*
X213785533Y-114527328D01*
X213887013Y-114282335D01*
X214034338Y-114061847D01*
X214221847Y-113874338D01*
X214442335Y-113727013D01*
X214687328Y-113625533D01*
X214774022Y-113608289D01*
X214947409Y-113573800D01*
X215212591Y-113573800D01*
X215385978Y-113608289D01*
X215385978Y-113608289D01*
G37*
G36*
X68709710Y-102145439D02*
G01*
X68818500Y-102167079D01*
X68903395Y-102202244D01*
X69023455Y-102251974D01*
X69023456Y-102251975D01*
X69207911Y-102375223D01*
X69364777Y-102532089D01*
X69414399Y-102606354D01*
X69488026Y-102716545D01*
X69537756Y-102836605D01*
X69570082Y-102914645D01*
X69572921Y-102921501D01*
X69616200Y-103139078D01*
X69616200Y-103360922D01*
X69572921Y-103578499D01*
X69488026Y-103783455D01*
X69488025Y-103783456D01*
X69364777Y-103967911D01*
X69207911Y-104124777D01*
X69084662Y-104207129D01*
X69023455Y-104248026D01*
X68903395Y-104297756D01*
X68818500Y-104332921D01*
X68709711Y-104354560D01*
X68600922Y-104376200D01*
X68379078Y-104376200D01*
X68270290Y-104354561D01*
X68161500Y-104332921D01*
X68076605Y-104297756D01*
X67956545Y-104248026D01*
X67895338Y-104207129D01*
X67772089Y-104124777D01*
X67615223Y-103967911D01*
X67491975Y-103783456D01*
X67491974Y-103783455D01*
X67407079Y-103578499D01*
X67363800Y-103360922D01*
X67363800Y-103139078D01*
X67407079Y-102921501D01*
X67409919Y-102914645D01*
X67442244Y-102836605D01*
X67491974Y-102716545D01*
X67565601Y-102606354D01*
X67615223Y-102532089D01*
X67772089Y-102375223D01*
X67956544Y-102251975D01*
X67956545Y-102251974D01*
X68076605Y-102202244D01*
X68161500Y-102167079D01*
X68270289Y-102145440D01*
X68379078Y-102123800D01*
X68600922Y-102123800D01*
X68709710Y-102145439D01*
X68709710Y-102145439D01*
G37*
G36*
X66277454Y-101085354D02*
G01*
X66450560Y-101157057D01*
X66450562Y-101157058D01*
X66606354Y-101261155D01*
X66738845Y-101393646D01*
X66842943Y-101549440D01*
X66914646Y-101722546D01*
X66951200Y-101906314D01*
X66951200Y-102093686D01*
X66914646Y-102277454D01*
X66842943Y-102450560D01*
X66842942Y-102450562D01*
X66738845Y-102606354D01*
X66606354Y-102738845D01*
X66450562Y-102842942D01*
X66450561Y-102842943D01*
X66450560Y-102842943D01*
X66277454Y-102914646D01*
X66093686Y-102951200D01*
X65906314Y-102951200D01*
X65722546Y-102914646D01*
X65549440Y-102842943D01*
X65549439Y-102842943D01*
X65549438Y-102842942D01*
X65393646Y-102738845D01*
X65261155Y-102606354D01*
X65157058Y-102450562D01*
X65157057Y-102450560D01*
X65085354Y-102277454D01*
X65048800Y-102093686D01*
X65048800Y-101906314D01*
X65085354Y-101722546D01*
X65157057Y-101549440D01*
X65261155Y-101393646D01*
X65393646Y-101261155D01*
X65549438Y-101157058D01*
X65549440Y-101157057D01*
X65722546Y-101085354D01*
X65906314Y-101048800D01*
X66093686Y-101048800D01*
X66277454Y-101085354D01*
X66277454Y-101085354D01*
G37*
G36*
X215385978Y-97768289D02*
G01*
X215472672Y-97785533D01*
X215717665Y-97887013D01*
X215938153Y-98034338D01*
X216125662Y-98221847D01*
X216272987Y-98442335D01*
X216374467Y-98687328D01*
X216426200Y-98947411D01*
X216426200Y-99212589D01*
X216374467Y-99472672D01*
X216272987Y-99717665D01*
X216125662Y-99938153D01*
X215938153Y-100125662D01*
X215717665Y-100272987D01*
X215472672Y-100374467D01*
X215385978Y-100391711D01*
X215212591Y-100426200D01*
X214947409Y-100426200D01*
X214774022Y-100391711D01*
X214687328Y-100374467D01*
X214442335Y-100272987D01*
X214221847Y-100125662D01*
X214034338Y-99938153D01*
X213887013Y-99717665D01*
X213785533Y-99472672D01*
X213733800Y-99212589D01*
X213733800Y-98947411D01*
X213785533Y-98687328D01*
X213887013Y-98442335D01*
X214034338Y-98221847D01*
X214221847Y-98034338D01*
X214442335Y-97887013D01*
X214687328Y-97785533D01*
X214774022Y-97768289D01*
X214947409Y-97733800D01*
X215212591Y-97733800D01*
X215385978Y-97768289D01*
X215385978Y-97768289D01*
G37*
G36*
X66277454Y-96585354D02*
G01*
X66450560Y-96657057D01*
X66450562Y-96657058D01*
X66606354Y-96761155D01*
X66738845Y-96893646D01*
X66781786Y-96957911D01*
X66842943Y-97049440D01*
X66914646Y-97222546D01*
X66951200Y-97406314D01*
X66951200Y-97593686D01*
X66914646Y-97777454D01*
X66869265Y-97887012D01*
X66842942Y-97950562D01*
X66738845Y-98106354D01*
X66606354Y-98238845D01*
X66450562Y-98342942D01*
X66450561Y-98342943D01*
X66450560Y-98342943D01*
X66277454Y-98414646D01*
X66093686Y-98451200D01*
X65906314Y-98451200D01*
X65722546Y-98414646D01*
X65549440Y-98342943D01*
X65549439Y-98342943D01*
X65549438Y-98342942D01*
X65393646Y-98238845D01*
X65261155Y-98106354D01*
X65157058Y-97950562D01*
X65130735Y-97887012D01*
X65085354Y-97777454D01*
X65048800Y-97593686D01*
X65048800Y-97406314D01*
X65085354Y-97222546D01*
X65157057Y-97049440D01*
X65218215Y-96957911D01*
X65261155Y-96893646D01*
X65393646Y-96761155D01*
X65549438Y-96657058D01*
X65549440Y-96657057D01*
X65722546Y-96585354D01*
X65906314Y-96548800D01*
X66093686Y-96548800D01*
X66277454Y-96585354D01*
X66277454Y-96585354D01*
G37*
G36*
X68709710Y-95135439D02*
G01*
X68818500Y-95157079D01*
X68903395Y-95192244D01*
X69023455Y-95241974D01*
X69023456Y-95241975D01*
X69207911Y-95365223D01*
X69364777Y-95522089D01*
X69447129Y-95645338D01*
X69488026Y-95706545D01*
X69537756Y-95826605D01*
X69572921Y-95911500D01*
X69616200Y-96129079D01*
X69616200Y-96350921D01*
X69572921Y-96568500D01*
X69565939Y-96585355D01*
X69488026Y-96773455D01*
X69488025Y-96773456D01*
X69364777Y-96957911D01*
X69207911Y-97114777D01*
X69084662Y-97197129D01*
X69023455Y-97238026D01*
X68903395Y-97287756D01*
X68818500Y-97322921D01*
X68709711Y-97344560D01*
X68600922Y-97366200D01*
X68379078Y-97366200D01*
X68270290Y-97344561D01*
X68161500Y-97322921D01*
X68076605Y-97287756D01*
X67956545Y-97238026D01*
X67895338Y-97197129D01*
X67772089Y-97114777D01*
X67615223Y-96957911D01*
X67491975Y-96773456D01*
X67491974Y-96773455D01*
X67414061Y-96585355D01*
X67407079Y-96568500D01*
X67363800Y-96350921D01*
X67363800Y-96129079D01*
X67407079Y-95911500D01*
X67442244Y-95826605D01*
X67491974Y-95706545D01*
X67532871Y-95645338D01*
X67615223Y-95522089D01*
X67772089Y-95365223D01*
X67956544Y-95241975D01*
X67956545Y-95241974D01*
X68076605Y-95192244D01*
X68161500Y-95157079D01*
X68270290Y-95135439D01*
X68379078Y-95113800D01*
X68600922Y-95113800D01*
X68709710Y-95135439D01*
X68709710Y-95135439D01*
G37*
G36*
X210225970Y-93255071D02*
G01*
X210366959Y-93313470D01*
X210493840Y-93398249D01*
X210601751Y-93506160D01*
X210686530Y-93633041D01*
X210744929Y-93774030D01*
X210774700Y-93923697D01*
X210774700Y-94076303D01*
X210744929Y-94225970D01*
X210686530Y-94366959D01*
X210601751Y-94493840D01*
X210493840Y-94601751D01*
X210366959Y-94686530D01*
X210225970Y-94744929D01*
X210076303Y-94774700D01*
X209923697Y-94774700D01*
X209774030Y-94744929D01*
X209633041Y-94686530D01*
X209506160Y-94601751D01*
X209398249Y-94493840D01*
X209313470Y-94366959D01*
X209255071Y-94225970D01*
X209225300Y-94076303D01*
X209225300Y-93923697D01*
X209255071Y-93774030D01*
X209313470Y-93633041D01*
X209398249Y-93506160D01*
X209506160Y-93398249D01*
X209633041Y-93313470D01*
X209774030Y-93255071D01*
X209923697Y-93225300D01*
X210076303Y-93225300D01*
X210225970Y-93255071D01*
X210225970Y-93255071D01*
G37*
G36*
X67960970Y-91439371D02*
G01*
X68062404Y-91470141D01*
X68163837Y-91500910D01*
X68163839Y-91500911D01*
X68257318Y-91550877D01*
X68350798Y-91600843D01*
X68393486Y-91635876D01*
X68514671Y-91735329D01*
X68614124Y-91856514D01*
X68649157Y-91899202D01*
X68649158Y-91899204D01*
X68749089Y-92086161D01*
X68810629Y-92289030D01*
X68831407Y-92500000D01*
X68810629Y-92710970D01*
X68810628Y-92710972D01*
X68749090Y-92913837D01*
X68649157Y-93100798D01*
X68614124Y-93143486D01*
X68514671Y-93264671D01*
X68393486Y-93364124D01*
X68350798Y-93399157D01*
X68163837Y-93499090D01*
X68062405Y-93529859D01*
X67960970Y-93560629D01*
X67802871Y-93576200D01*
X66197129Y-93576200D01*
X66039030Y-93560629D01*
X65937595Y-93529859D01*
X65836163Y-93499090D01*
X65649202Y-93399157D01*
X65606514Y-93364124D01*
X65485329Y-93264671D01*
X65385876Y-93143486D01*
X65350843Y-93100798D01*
X65250910Y-92913837D01*
X65189372Y-92710972D01*
X65189371Y-92710970D01*
X65168593Y-92500000D01*
X65189371Y-92289030D01*
X65250911Y-92086161D01*
X65350842Y-91899204D01*
X65350843Y-91899202D01*
X65385876Y-91856514D01*
X65485329Y-91735329D01*
X65606514Y-91635876D01*
X65649202Y-91600843D01*
X65742682Y-91550877D01*
X65836161Y-91500911D01*
X65836163Y-91500910D01*
X65937596Y-91470141D01*
X66039030Y-91439371D01*
X66197129Y-91423800D01*
X67802871Y-91423800D01*
X67960970Y-91439371D01*
X67960970Y-91439371D01*
G37*
G36*
X210225970Y-90715071D02*
G01*
X210366959Y-90773470D01*
X210493840Y-90858249D01*
X210601751Y-90966160D01*
X210686530Y-91093041D01*
X210744929Y-91234030D01*
X210774700Y-91383697D01*
X210774700Y-91536303D01*
X210744929Y-91685970D01*
X210686530Y-91826959D01*
X210601751Y-91953840D01*
X210493840Y-92061751D01*
X210366959Y-92146530D01*
X210225970Y-92204929D01*
X210076303Y-92234700D01*
X209923697Y-92234700D01*
X209774030Y-92204929D01*
X209633041Y-92146530D01*
X209506160Y-92061751D01*
X209398249Y-91953840D01*
X209313470Y-91826959D01*
X209255071Y-91685970D01*
X209225300Y-91536303D01*
X209225300Y-91383697D01*
X209255071Y-91234030D01*
X209313470Y-91093041D01*
X209398249Y-90966160D01*
X209506160Y-90858249D01*
X209633041Y-90773470D01*
X209774030Y-90715071D01*
X209923697Y-90685300D01*
X210076303Y-90685300D01*
X210225970Y-90715071D01*
X210225970Y-90715071D01*
G37*
G36*
X215385978Y-87608289D02*
G01*
X215472672Y-87625533D01*
X215717665Y-87727013D01*
X215938153Y-87874338D01*
X216125662Y-88061847D01*
X216272987Y-88282335D01*
X216272988Y-88282337D01*
X216374467Y-88527329D01*
X216426200Y-88787409D01*
X216426200Y-89052591D01*
X216391711Y-89225978D01*
X216374467Y-89312672D01*
X216272987Y-89557665D01*
X216125662Y-89778153D01*
X215938153Y-89965662D01*
X215717665Y-90112987D01*
X215472672Y-90214467D01*
X215385978Y-90231711D01*
X215212591Y-90266200D01*
X214947409Y-90266200D01*
X214774022Y-90231711D01*
X214687328Y-90214467D01*
X214442335Y-90112987D01*
X214221847Y-89965662D01*
X214034338Y-89778153D01*
X213887013Y-89557665D01*
X213785533Y-89312672D01*
X213768289Y-89225978D01*
X213733800Y-89052591D01*
X213733800Y-88787409D01*
X213785533Y-88527329D01*
X213887012Y-88282337D01*
X213887013Y-88282335D01*
X214034338Y-88061847D01*
X214221847Y-87874338D01*
X214442335Y-87727013D01*
X214687328Y-87625533D01*
X214774022Y-87608289D01*
X214947409Y-87573800D01*
X215212591Y-87573800D01*
X215385978Y-87608289D01*
X215385978Y-87608289D01*
G37*
G36*
X75076200Y-90076200D02*
G01*
X72923800Y-90076200D01*
X72923800Y-85923800D01*
X75076200Y-85923800D01*
X75076200Y-90076200D01*
X75076200Y-90076200D01*
G37*
G36*
X68210970Y-86289371D02*
G01*
X68312404Y-86320141D01*
X68413837Y-86350910D01*
X68600798Y-86450843D01*
X68643486Y-86485876D01*
X68764671Y-86585329D01*
X68864124Y-86706514D01*
X68899157Y-86749202D01*
X68899158Y-86749204D01*
X68999089Y-86936161D01*
X69060629Y-87139030D01*
X69076200Y-87297129D01*
X69076200Y-88702871D01*
X69060629Y-88860970D01*
X69060628Y-88860972D01*
X68999090Y-89063837D01*
X68899157Y-89250798D01*
X68864124Y-89293486D01*
X68764671Y-89414671D01*
X68673781Y-89489261D01*
X68600798Y-89549157D01*
X68413836Y-89649090D01*
X68312403Y-89679859D01*
X68210969Y-89710629D01*
X68000000Y-89731407D01*
X67789030Y-89710629D01*
X67687596Y-89679859D01*
X67586163Y-89649090D01*
X67399202Y-89549157D01*
X67356514Y-89514124D01*
X67235329Y-89414671D01*
X67151621Y-89312671D01*
X67100843Y-89250798D01*
X67000910Y-89063836D01*
X66970141Y-88962403D01*
X66939371Y-88860969D01*
X66923800Y-88702870D01*
X66923800Y-87297129D01*
X66939371Y-87139030D01*
X67000910Y-86936163D01*
X67100844Y-86749202D01*
X67235330Y-86585329D01*
X67356515Y-86485876D01*
X67399203Y-86450843D01*
X67586164Y-86350910D01*
X67687597Y-86320141D01*
X67789031Y-86289371D01*
X68000000Y-86268593D01*
X68210970Y-86289371D01*
X68210970Y-86289371D01*
G37*
G36*
X65110387Y-87128591D02*
G01*
X65255578Y-87157471D01*
X65415037Y-87223521D01*
X65558545Y-87319411D01*
X65680589Y-87441455D01*
X65776479Y-87584963D01*
X65842529Y-87744422D01*
X65876200Y-87913702D01*
X65876200Y-88086298D01*
X65842529Y-88255578D01*
X65776479Y-88415037D01*
X65680589Y-88558545D01*
X65558545Y-88680589D01*
X65415037Y-88776479D01*
X65255578Y-88842529D01*
X65110387Y-88871409D01*
X65086299Y-88876200D01*
X64913701Y-88876200D01*
X64889613Y-88871409D01*
X64744422Y-88842529D01*
X64584963Y-88776479D01*
X64441455Y-88680589D01*
X64319411Y-88558545D01*
X64223521Y-88415037D01*
X64157471Y-88255578D01*
X64123800Y-88086298D01*
X64123800Y-87913702D01*
X64157471Y-87744422D01*
X64223521Y-87584963D01*
X64319411Y-87441455D01*
X64441455Y-87319411D01*
X64584963Y-87223521D01*
X64744422Y-87157471D01*
X64889613Y-87128591D01*
X64913701Y-87123800D01*
X65086299Y-87123800D01*
X65110387Y-87128591D01*
X65110387Y-87128591D01*
G37*
G36*
X85846636Y-83246491D02*
G01*
X85953049Y-83267658D01*
X86103408Y-83329939D01*
X86238727Y-83420356D01*
X86353807Y-83535436D01*
X86444224Y-83670755D01*
X86506505Y-83821114D01*
X86538255Y-83980734D01*
X86538255Y-84143482D01*
X86506505Y-84303102D01*
X86444224Y-84453461D01*
X86353807Y-84588780D01*
X86238727Y-84703860D01*
X86103408Y-84794277D01*
X85953049Y-84856558D01*
X85846636Y-84877725D01*
X85793430Y-84888308D01*
X85630680Y-84888308D01*
X85577474Y-84877725D01*
X85471061Y-84856558D01*
X85320702Y-84794277D01*
X85185383Y-84703860D01*
X85070303Y-84588780D01*
X84979886Y-84453461D01*
X84917605Y-84303102D01*
X84885855Y-84143482D01*
X84885855Y-83980734D01*
X84917605Y-83821114D01*
X84979886Y-83670755D01*
X85070303Y-83535436D01*
X85185383Y-83420356D01*
X85320702Y-83329939D01*
X85471061Y-83267658D01*
X85577474Y-83246491D01*
X85630680Y-83235908D01*
X85793430Y-83235908D01*
X85846636Y-83246491D01*
X85846636Y-83246491D01*
G37*
G36*
X67960970Y-82439371D02*
G01*
X68062405Y-82470141D01*
X68163837Y-82500910D01*
X68350798Y-82600843D01*
X68393486Y-82635876D01*
X68514671Y-82735329D01*
X68614124Y-82856514D01*
X68649157Y-82899202D01*
X68649158Y-82899204D01*
X68749089Y-83086161D01*
X68810629Y-83289030D01*
X68831407Y-83500000D01*
X68810629Y-83710970D01*
X68810628Y-83710972D01*
X68749090Y-83913837D01*
X68649157Y-84100798D01*
X68614127Y-84143482D01*
X68514671Y-84264671D01*
X68393486Y-84364124D01*
X68350798Y-84399157D01*
X68163837Y-84499090D01*
X68062404Y-84529859D01*
X67960970Y-84560629D01*
X67802871Y-84576200D01*
X66197129Y-84576200D01*
X66039030Y-84560629D01*
X65937596Y-84529859D01*
X65836163Y-84499090D01*
X65649202Y-84399157D01*
X65606514Y-84364124D01*
X65485329Y-84264671D01*
X65385873Y-84143482D01*
X65350843Y-84100798D01*
X65250910Y-83913837D01*
X65189372Y-83710972D01*
X65189371Y-83710970D01*
X65168593Y-83500000D01*
X65189371Y-83289030D01*
X65250911Y-83086161D01*
X65350842Y-82899204D01*
X65350843Y-82899202D01*
X65385876Y-82856514D01*
X65485329Y-82735329D01*
X65606514Y-82635876D01*
X65649202Y-82600843D01*
X65836163Y-82500910D01*
X65937595Y-82470141D01*
X66039030Y-82439371D01*
X66197129Y-82423800D01*
X67802871Y-82423800D01*
X67960970Y-82439371D01*
X67960970Y-82439371D01*
G37*
G36*
X85846636Y-78346491D02*
G01*
X85953049Y-78367658D01*
X86103408Y-78429939D01*
X86238727Y-78520356D01*
X86353807Y-78635436D01*
X86444224Y-78770755D01*
X86506505Y-78921114D01*
X86538255Y-79080734D01*
X86538255Y-79243482D01*
X86506505Y-79403102D01*
X86444224Y-79553461D01*
X86353807Y-79688780D01*
X86238727Y-79803860D01*
X86103408Y-79894277D01*
X85953049Y-79956558D01*
X85846636Y-79977725D01*
X85793430Y-79988308D01*
X85630680Y-79988308D01*
X85577474Y-79977725D01*
X85471061Y-79956558D01*
X85320702Y-79894277D01*
X85185383Y-79803860D01*
X85070303Y-79688780D01*
X84979886Y-79553461D01*
X84917605Y-79403102D01*
X84885855Y-79243482D01*
X84885855Y-79080734D01*
X84917605Y-78921114D01*
X84979886Y-78770755D01*
X85070303Y-78635436D01*
X85185383Y-78520356D01*
X85320702Y-78429939D01*
X85471061Y-78367658D01*
X85577474Y-78346491D01*
X85630680Y-78335908D01*
X85793430Y-78335908D01*
X85846636Y-78346491D01*
X85846636Y-78346491D01*
G37*
G36*
X215385978Y-76768289D02*
G01*
X215472672Y-76785533D01*
X215717665Y-76887013D01*
X215938153Y-77034338D01*
X216125662Y-77221847D01*
X216272987Y-77442335D01*
X216374467Y-77687328D01*
X216426200Y-77947411D01*
X216426200Y-78212589D01*
X216374467Y-78472672D01*
X216272987Y-78717665D01*
X216125662Y-78938153D01*
X215938153Y-79125662D01*
X215717665Y-79272987D01*
X215472672Y-79374467D01*
X215385978Y-79391711D01*
X215212591Y-79426200D01*
X214947409Y-79426200D01*
X214774022Y-79391711D01*
X214687328Y-79374467D01*
X214442335Y-79272987D01*
X214221847Y-79125662D01*
X214034338Y-78938153D01*
X213887013Y-78717665D01*
X213785533Y-78472672D01*
X213733800Y-78212589D01*
X213733800Y-77947411D01*
X213785533Y-77687328D01*
X213887013Y-77442335D01*
X214034338Y-77221847D01*
X214221847Y-77034338D01*
X214442335Y-76887013D01*
X214687328Y-76785533D01*
X214774022Y-76768289D01*
X214947409Y-76733800D01*
X215212591Y-76733800D01*
X215385978Y-76768289D01*
X215385978Y-76768289D01*
G37*
G36*
X65207259Y-72714669D02*
G01*
X65348863Y-72757624D01*
X65379552Y-72774028D01*
X65479363Y-72827378D01*
X65479365Y-72827379D01*
X65479364Y-72827379D01*
X65593749Y-72921251D01*
X65687621Y-73035636D01*
X65757376Y-73166137D01*
X65800331Y-73307741D01*
X65814834Y-73455000D01*
X65800331Y-73602259D01*
X65757376Y-73743863D01*
X65687621Y-73874364D01*
X65593749Y-73988749D01*
X65489619Y-74074205D01*
X65479363Y-74082622D01*
X65418617Y-74115091D01*
X65348863Y-74152376D01*
X65207259Y-74195331D01*
X65096900Y-74206200D01*
X64673100Y-74206200D01*
X64562741Y-74195331D01*
X64421137Y-74152376D01*
X64351383Y-74115091D01*
X64290637Y-74082622D01*
X64280381Y-74074205D01*
X64176251Y-73988749D01*
X64082379Y-73874364D01*
X64012624Y-73743863D01*
X63969669Y-73602259D01*
X63955166Y-73455000D01*
X63969669Y-73307741D01*
X64012624Y-73166137D01*
X64082379Y-73035636D01*
X64176251Y-72921251D01*
X64290636Y-72827379D01*
X64290635Y-72827379D01*
X64290637Y-72827378D01*
X64390448Y-72774028D01*
X64421137Y-72757624D01*
X64562741Y-72714669D01*
X64673100Y-72703800D01*
X65096900Y-72703800D01*
X65207259Y-72714669D01*
X65207259Y-72714669D01*
G37*
G36*
X210225970Y-72255071D02*
G01*
X210366959Y-72313470D01*
X210493840Y-72398249D01*
X210601751Y-72506160D01*
X210686530Y-72633041D01*
X210744929Y-72774030D01*
X210774700Y-72923697D01*
X210774700Y-73076303D01*
X210744929Y-73225970D01*
X210686530Y-73366959D01*
X210601751Y-73493840D01*
X210493840Y-73601751D01*
X210366959Y-73686530D01*
X210225970Y-73744929D01*
X210076303Y-73774700D01*
X209923697Y-73774700D01*
X209774030Y-73744929D01*
X209633041Y-73686530D01*
X209506160Y-73601751D01*
X209398249Y-73493840D01*
X209313470Y-73366959D01*
X209255071Y-73225970D01*
X209225300Y-73076303D01*
X209225300Y-72923697D01*
X209255071Y-72774030D01*
X209313470Y-72633041D01*
X209398249Y-72506160D01*
X209506160Y-72398249D01*
X209633041Y-72313470D01*
X209774030Y-72255071D01*
X209923697Y-72225300D01*
X210076303Y-72225300D01*
X210225970Y-72255071D01*
X210225970Y-72255071D01*
G37*
G36*
X68161756Y-72523331D02*
G01*
X68207756Y-72527861D01*
X68325796Y-72563668D01*
X68325799Y-72563669D01*
X68434580Y-72621814D01*
X68529933Y-72700067D01*
X68608186Y-72795420D01*
X68666331Y-72904201D01*
X68666332Y-72904204D01*
X68702139Y-73022244D01*
X68714229Y-73145000D01*
X68702139Y-73267756D01*
X68672046Y-73366958D01*
X68666331Y-73385799D01*
X68608186Y-73494580D01*
X68529933Y-73589933D01*
X68434580Y-73668186D01*
X68325799Y-73726331D01*
X68325796Y-73726332D01*
X68207756Y-73762139D01*
X68161755Y-73766670D01*
X68115756Y-73771200D01*
X67654244Y-73771200D01*
X67608245Y-73766670D01*
X67562244Y-73762139D01*
X67444204Y-73726332D01*
X67444201Y-73726331D01*
X67335420Y-73668186D01*
X67240067Y-73589933D01*
X67161814Y-73494580D01*
X67103669Y-73385799D01*
X67097954Y-73366958D01*
X67067861Y-73267756D01*
X67055771Y-73145000D01*
X67067861Y-73022244D01*
X67103668Y-72904204D01*
X67103669Y-72904201D01*
X67161814Y-72795420D01*
X67240067Y-72700067D01*
X67335420Y-72621814D01*
X67444201Y-72563669D01*
X67444204Y-72563668D01*
X67562244Y-72527861D01*
X67608244Y-72523331D01*
X67654244Y-72518800D01*
X68115756Y-72518800D01*
X68161756Y-72523331D01*
X68161756Y-72523331D01*
G37*
G36*
X210225970Y-69715071D02*
G01*
X210366959Y-69773470D01*
X210493840Y-69858249D01*
X210601751Y-69966160D01*
X210686530Y-70093041D01*
X210744929Y-70234030D01*
X210774700Y-70383697D01*
X210774700Y-70536303D01*
X210744929Y-70685970D01*
X210686530Y-70826959D01*
X210601751Y-70953840D01*
X210493840Y-71061751D01*
X210366959Y-71146530D01*
X210225970Y-71204929D01*
X210076303Y-71234700D01*
X209923697Y-71234700D01*
X209774030Y-71204929D01*
X209633041Y-71146530D01*
X209506160Y-71061751D01*
X209398249Y-70953840D01*
X209313470Y-70826959D01*
X209255071Y-70685970D01*
X209225300Y-70536303D01*
X209225300Y-70383697D01*
X209255071Y-70234030D01*
X209313470Y-70093041D01*
X209398249Y-69966160D01*
X209506160Y-69858249D01*
X209633041Y-69773470D01*
X209774030Y-69715071D01*
X209923697Y-69685300D01*
X210076303Y-69685300D01*
X210225970Y-69715071D01*
X210225970Y-69715071D01*
G37*
G36*
X215385978Y-66608289D02*
G01*
X215472672Y-66625533D01*
X215717665Y-66727013D01*
X215938153Y-66874338D01*
X216125662Y-67061847D01*
X216254501Y-67254669D01*
X216272988Y-67282337D01*
X216374467Y-67527329D01*
X216426200Y-67787409D01*
X216426200Y-68052591D01*
X216400410Y-68182244D01*
X216374467Y-68312672D01*
X216326798Y-68427755D01*
X216284965Y-68528749D01*
X216272987Y-68557665D01*
X216125662Y-68778153D01*
X215938153Y-68965662D01*
X215717665Y-69112987D01*
X215472672Y-69214467D01*
X215385978Y-69231711D01*
X215212591Y-69266200D01*
X214947409Y-69266200D01*
X214774022Y-69231711D01*
X214687328Y-69214467D01*
X214442335Y-69112987D01*
X214221847Y-68965662D01*
X214034338Y-68778153D01*
X213887013Y-68557665D01*
X213875036Y-68528749D01*
X213833202Y-68427755D01*
X213785533Y-68312672D01*
X213759590Y-68182244D01*
X213733800Y-68052591D01*
X213733800Y-67787409D01*
X213785533Y-67527329D01*
X213887012Y-67282337D01*
X213905499Y-67254669D01*
X214034338Y-67061847D01*
X214221847Y-66874338D01*
X214442335Y-66727013D01*
X214687328Y-66625533D01*
X214774022Y-66608289D01*
X214947409Y-66573800D01*
X215212591Y-66573800D01*
X215385978Y-66608289D01*
X215385978Y-66608289D01*
G37*
G36*
X68161756Y-67683331D02*
G01*
X68207756Y-67687861D01*
X68268007Y-67706138D01*
X68325799Y-67723669D01*
X68434580Y-67781814D01*
X68529933Y-67860067D01*
X68608186Y-67955420D01*
X68666331Y-68064201D01*
X68666332Y-68064204D01*
X68690010Y-68142259D01*
X68702139Y-68182245D01*
X68714229Y-68305000D01*
X68702139Y-68427755D01*
X68666331Y-68545799D01*
X68608186Y-68654580D01*
X68529933Y-68749933D01*
X68434580Y-68828186D01*
X68325799Y-68886331D01*
X68325796Y-68886332D01*
X68207756Y-68922139D01*
X68161756Y-68926669D01*
X68115756Y-68931200D01*
X67654244Y-68931200D01*
X67608244Y-68926669D01*
X67562244Y-68922139D01*
X67444204Y-68886332D01*
X67444201Y-68886331D01*
X67335420Y-68828186D01*
X67240067Y-68749933D01*
X67161814Y-68654580D01*
X67103669Y-68545799D01*
X67067861Y-68427755D01*
X67055771Y-68305000D01*
X67067861Y-68182245D01*
X67079991Y-68142259D01*
X67103668Y-68064204D01*
X67103669Y-68064201D01*
X67161814Y-67955420D01*
X67240067Y-67860067D01*
X67335420Y-67781814D01*
X67444201Y-67723669D01*
X67501993Y-67706138D01*
X67562244Y-67687861D01*
X67608244Y-67683331D01*
X67654244Y-67678800D01*
X68115756Y-67678800D01*
X68161756Y-67683331D01*
X68161756Y-67683331D01*
G37*
G36*
X65207259Y-67254669D02*
G01*
X65348863Y-67297624D01*
X65418617Y-67334909D01*
X65479363Y-67367378D01*
X65479365Y-67367379D01*
X65479364Y-67367379D01*
X65593749Y-67461251D01*
X65687621Y-67575636D01*
X65757376Y-67706137D01*
X65800331Y-67847741D01*
X65814834Y-67995000D01*
X65800331Y-68142259D01*
X65757376Y-68283863D01*
X65687621Y-68414364D01*
X65593749Y-68528749D01*
X65489619Y-68614205D01*
X65479363Y-68622622D01*
X65419574Y-68654580D01*
X65348863Y-68692376D01*
X65207259Y-68735331D01*
X65096900Y-68746200D01*
X64673100Y-68746200D01*
X64562741Y-68735331D01*
X64421137Y-68692376D01*
X64350426Y-68654580D01*
X64290637Y-68622622D01*
X64280381Y-68614205D01*
X64176251Y-68528749D01*
X64082379Y-68414364D01*
X64012624Y-68283863D01*
X63969669Y-68142259D01*
X63955166Y-67995000D01*
X63969669Y-67847741D01*
X64012624Y-67706137D01*
X64082379Y-67575636D01*
X64176251Y-67461251D01*
X64290636Y-67367379D01*
X64290635Y-67367379D01*
X64290637Y-67367378D01*
X64351383Y-67334909D01*
X64421137Y-67297624D01*
X64562741Y-67254669D01*
X64673100Y-67243800D01*
X65096900Y-67243800D01*
X65207259Y-67254669D01*
X65207259Y-67254669D01*
G37*
M02*
