%TF.GenerationSoftware,KiCad,Pcbnew,(5.1.0-0)*%
%TF.CreationDate,2019-08-26T10:00:45-05:00*%
%TF.ProjectId,impedance_777,696d7065-6461-46e6-9365-5f3737372e6b,1*%
%TF.SameCoordinates,Original*%
%TF.FileFunction,Legend,Bot*%
%TF.FilePolarity,Positive*%
%FSLAX46Y46*%
G04 Gerber Fmt 4.6, Leading zero omitted, Abs format (unit mm)*
G04 Created by KiCad (PCBNEW (5.1.0-0)) date 2019-08-26 10:00:45*
%MOMM*%
%LPD*%
G04 APERTURE LIST*
%ADD10C,0.150000*%
%ADD11O,1.652400X1.252400*%
%ADD12O,1.852400X1.502400*%
%ADD13C,1.752400*%
%ADD14O,3.652400X2.152400*%
%ADD15O,2.152400X3.452400*%
%ADD16R,2.152400X4.152400*%
%ADD17C,1.652400*%
%ADD18C,2.252400*%
%ADD19C,1.902400*%
%ADD20C,2.692400*%
%ADD21C,1.549400*%
G04 APERTURE END LIST*
D10*
X123142857Y-139452380D02*
X123142857Y-138452380D01*
X122571428Y-139452380D01*
X122571428Y-138452380D01*
X122238095Y-138452380D02*
X121666666Y-138452380D01*
X121952380Y-139452380D02*
X121952380Y-138452380D01*
X120809523Y-139452380D02*
X121380952Y-139452380D01*
X121095238Y-139452380D02*
X121095238Y-138452380D01*
X121190476Y-138595238D01*
X121285714Y-138690476D01*
X121380952Y-138738095D01*
%LPC*%
D11*
X67885000Y-68305000D03*
X67885000Y-73145000D03*
D12*
X64885000Y-67995000D03*
X64885000Y-73455000D03*
D13*
X65000000Y-88000000D03*
D14*
X67000000Y-92500000D03*
X67000000Y-83500000D03*
D15*
X68000000Y-88000000D03*
D16*
X74000000Y-88000000D03*
D17*
X85712055Y-84062108D03*
X85712055Y-79162108D03*
D18*
X68490000Y-103250000D03*
D19*
X66000000Y-102000000D03*
X66000000Y-97500000D03*
D18*
X68490000Y-96240000D03*
D20*
X215080000Y-78080000D03*
X215080000Y-67920000D03*
D21*
X210000000Y-70460000D03*
X210000000Y-73000000D03*
D20*
X215080000Y-99080000D03*
X215080000Y-88920000D03*
D21*
X210000000Y-91460000D03*
X210000000Y-94000000D03*
D20*
X215080000Y-125080000D03*
X215080000Y-114920000D03*
D21*
X210000000Y-117460000D03*
X210000000Y-120000000D03*
D20*
X215080000Y-146080000D03*
X215080000Y-135920000D03*
D21*
X210000000Y-138460000D03*
X210000000Y-141000000D03*
M02*
