M48
;DRILL file {KiCad 5.0.2-5.fc29} date Sat 24 Aug 2019 05:40:28 PM CDT
;FORMAT={-:-/ absolute / inch / decimal}
FMAT,2
INCH,TZ
T1C0.0130
T2C0.0256
T3C0.0276
T4C0.0315
T5C0.0350
T6C0.0390
T7C0.0394
T8C0.0512
T9C0.0800
%
G90
G05
T1
X2.5492Y-2.4311
X2.5492Y-2.5098
X2.5492Y-2.5886
X2.5945Y-2.9902
X2.5945Y-3.0689
X2.5945Y-3.2106
X2.5945Y-4.565
X2.5984Y-4.0945
X2.6772Y-4.6949
X2.6772Y-4.8917
X2.6899Y-3.0413
X2.83Y-4.3649
X2.8346Y-4.7146
X2.872Y-4.6181
X2.874Y-4.4587
X2.8834Y-2.8243
X2.9331Y-2.9134
X2.9528Y-4.5669
X2.9626Y-2.6476
X2.9724Y-4.6161
X3.1299Y-2.4803
X3.1693Y-2.7461
X3.1693Y-4.4488
X3.1831Y-4.1398
X3.1831Y-4.1988
X3.1831Y-4.2579
X3.1988Y-2.9724
X3.2087Y-3.1693
X3.2185Y-2.7643
X3.2382Y-4.5965
X3.248Y-2.6673
X3.248Y-4.4094
X3.3465Y-4.4094
X3.3563Y-3.189
X3.4547Y-4.7539
X3.4744Y-2.874
X3.4912Y-2.9863
X3.5335Y-3.9764
X3.5335Y-4.0256
X3.5335Y-4.0748
X3.5335Y-4.8622
X3.5531Y-5.7835
X3.5728Y-5.6398
X3.5945Y-5.9823
X3.6122Y-2.7953
X3.622Y-5.
X3.6516Y-4.6555
X3.6614Y-5.
X3.6692Y-5.7008
X3.7005Y-3.0953
X3.7008Y-4.6063
X3.7217Y-5.4737
X3.7217Y-5.5032
X3.7217Y-5.5327
X3.7225Y-5.7008
X3.7402Y-2.8642
X3.7547Y-4.5913
X3.7586Y-2.9618
X3.7744Y-5.7008
X3.7992Y-2.9784
X3.8091Y-4.7441
X3.8127Y-4.7073
X3.8287Y-5.5217
X3.8287Y-5.7874
X3.8465Y-5.9902
X3.8583Y-4.2028
X3.8583Y-4.498
X3.8583Y-5.2756
X3.89Y-4.4609
X3.8937Y-2.9272
X3.8976Y-4.8819
X3.8976Y-4.9213
X3.8976Y-4.9606
X3.8976Y-5.
X3.8976Y-5.0394
X3.8976Y-5.2756
X3.9086Y-4.6359
X3.937Y-5.2787
X3.9409Y-2.9744
X3.9764Y-5.2947
X4.0157Y-5.2806
X4.0867Y-4.6391
X4.0945Y-2.4409
X4.1142Y-4.6654
X4.1522Y-5.0797
X4.1732Y-5.0492
X4.194Y-5.0177
X4.2323Y-2.6575
X4.2421Y-3.1791
X4.2538Y-3.144
X4.2913Y-4.4587
X4.2913Y-4.6752
X4.3009Y-4.4978
X4.3032Y-5.1151
X4.3204Y-2.9946
X4.3213Y-2.8371
X4.4192Y-4.1641
X4.4192Y-4.1641
X4.4217Y-5.0119
X4.4291Y-5.0984
X4.5768Y-5.1083
X4.5787Y-2.502
X4.5965Y-4.4291
X4.6037Y-5.731
X4.6037Y-5.7802
X4.626Y-2.502
X4.6457Y-4.9902
X4.6555Y-4.7047
X4.6732Y-2.502
X4.685Y-4.3209
X4.9508Y-4.3898
X4.9508Y-4.4685
X4.9508Y-4.5472
X4.9508Y-4.626
X4.9508Y-4.7047
X4.9606Y-5.4035
X4.9804Y-6.0435
X5.0098Y-5.4035
X5.0197Y-4.2421
X5.0295Y-4.3898
X5.0295Y-4.4685
X5.0295Y-4.5472
X5.0295Y-4.626
X5.0665Y-3.616
X5.0787Y-3.7402
X5.0787Y-4.311
X5.1083Y-3.6713
X5.1083Y-4.3898
X5.1083Y-4.4685
X5.1083Y-4.5472
X5.1181Y-4.1142
X5.1476Y-5.0098
X5.1476Y-5.1378
X5.1476Y-5.4429
X5.1575Y-4.311
X5.1575Y-4.7539
X5.159Y-3.8878
X5.171Y-3.606
X5.187Y-4.0945
X5.187Y-4.3898
X5.187Y-4.4685
X5.2176Y-3.8878
X5.2244Y-4.3139
X5.2264Y-3.7303
X5.2264Y-5.4528
X5.2461Y-2.628
X5.2657Y-4.3898
X5.2756Y-3.5335
X5.2854Y-5.8957
X5.2953Y-3.8484
X5.3004Y-3.9815
X5.3134Y-3.7144
X5.33Y-3.5436
X5.3313Y-3.5809
X5.3346Y-2.6476
X5.3445Y-4.1142
X5.3839Y-3.8976
X5.3937Y-4.1043
X5.3937Y-4.311
X5.4331Y-5.0984
X5.4429Y-3.061
X5.4429Y-3.7008
X5.4724Y-4.311
X5.5217Y-2.9921
X5.5413Y-5.4134
X5.5709Y-5.1673
X5.5876Y-3.9104
X5.5906Y-2.7953
X5.5906Y-4.626
X5.5906Y-5.0984
X5.6292Y-3.9166
X5.6292Y-3.956
X5.6299Y-2.7165
X5.6299Y-3.0906
X5.6496Y-4.9606
X5.6622Y-5.0903
X5.6693Y-2.8937
X5.6906Y-4.7736
X5.6988Y-4.5965
X5.6988Y-5.5906
X5.7087Y-3.7008
X5.7174Y-2.671
X5.7185Y-5.4134
X5.7407Y-2.6422
X5.748Y-5.748
X5.7579Y-2.8051
X5.7579Y-3.1201
X5.7579Y-5.1181
X5.7874Y-3.0906
X5.7972Y-4.5374
X5.7972Y-5.1575
X5.8858Y-3.3465
X5.9154Y-4.0059
X5.9154Y-5.4528
X5.9252Y-5.4134
X5.935Y-5.5217
X5.935Y-5.561
X5.935Y-5.6004
X5.9449Y-3.8878
X5.9547Y-4.0059
X5.9941Y-2.5787
X5.9941Y-2.7657
X6.0039Y-5.3937
X6.0236Y-3.6713
X6.0433Y-4.9902
X6.0467Y-4.6175
X6.1024Y-5.502
X6.1122Y-2.5591
X6.1187Y-4.5486
X6.1417Y-5.502
X6.1516Y-2.5591
X6.1516Y-4.1437
X6.1516Y-4.8228
X6.1811Y-5.502
X6.1909Y-2.5591
X6.1909Y-4.1437
X6.199Y-5.1262
X6.2303Y-4.1437
X6.2752Y-3.6258
X6.2894Y-4.8878
X6.3252Y-4.8554
X6.3287Y-5.8268
X6.3475Y-4.9776
X6.3583Y-4.6752
X6.3583Y-5.8268
X6.4075Y-4.5472
X6.4173Y-4.685
X6.4311Y-4.94
X6.4319Y-5.0365
X6.437Y-3.5039
X6.437Y-3.6811
X6.437Y-3.8484
X6.4558Y-5.1275
X6.4567Y-2.7756
X6.4567Y-4.8327
X6.4646Y-5.046
X6.4685Y-4.69
X6.4926Y-4.6619
X6.5551Y-2.5787
X6.5662Y-4.676
X6.5846Y-2.5492
X6.5866Y-4.7106
X6.5945Y-3.7008
X6.6043Y-4.5669
X6.624Y-3.9862
X6.624Y-4.065
X6.6286Y-3.9343
X6.6437Y-4.5669
X6.6535Y-5.
X6.7019Y-5.5656
X6.7028Y-3.9075
X6.7224Y-2.6969
X6.7224Y-2.7559
X6.7389Y-3.9154
X6.7421Y-3.5138
X6.752Y-4.5669
X6.7717Y-5.3937
X6.7766Y-4.5915
X6.7913Y-4.2618
X6.7913Y-4.3406
X6.7913Y-4.4193
X6.7913Y-4.498
X6.7913Y-4.7343
X6.7913Y-4.813
X6.7913Y-4.8917
X6.7913Y-4.9705
X6.7913Y-5.0492
X6.8012Y-4.6161
X6.8406Y-2.874
X6.8406Y-2.9134
X6.8406Y-2.9528
X6.8406Y-3.4522
X6.8701Y-4.2618
X6.8701Y-4.3406
X6.8701Y-4.4193
X6.8701Y-4.498
X6.8701Y-4.5768
X6.8701Y-4.813
X6.8701Y-4.8917
X6.8701Y-4.9705
X6.8898Y-3.5925
X6.8898Y-3.6713
X6.8898Y-3.75
X6.8898Y-3.8287
X6.8898Y-3.9075
X6.9094Y-5.6201
X6.9193Y-2.5098
X6.9488Y-4.3406
X6.9488Y-4.4193
X6.9488Y-4.498
X6.9488Y-4.5768
X6.9488Y-4.8917
X6.9685Y-3.5925
X6.9685Y-3.6713
X6.9685Y-3.75
X6.9685Y-3.8287
X6.9724Y-2.4232
X7.0079Y-5.374
X7.0137Y-3.0472
X7.0276Y-4.2618
X7.0276Y-4.4193
X7.0276Y-4.498
X7.0276Y-4.5768
X7.0472Y-3.5925
X7.0472Y-3.6713
X7.0472Y-3.75
X7.0531Y-3.0472
X7.0669Y-2.5591
X7.0906Y-3.0472
X7.1063Y-4.2618
X7.1063Y-4.3406
X7.1063Y-4.498
X7.1063Y-4.5768
X7.126Y-3.5925
X7.126Y-3.6713
X7.2047Y-3.5925
X7.2244Y-4.5965
X7.234Y-3.2497
X7.2343Y-4.498
X7.235Y-3.2867
X7.2659Y-4.7442
X7.2736Y-3.4547
X7.2736Y-4.3799
X7.2835Y-4.4882
X7.2909Y-4.5276
X7.3228Y-2.4311
X7.3266Y-2.8937
X7.3266Y-2.9293
X7.3327Y-4.5965
X7.3425Y-3.1102
X7.3425Y-3.2776
X7.3524Y-5.3543
X7.3524Y-5.3937
X7.3524Y-5.4331
X7.3681Y-4.58
X7.372Y-4.7805
X7.3766Y-2.4364
X7.3766Y-2.4731
X7.3766Y-2.5098
X7.3917Y-3.5138
X7.3929Y-2.6633
X7.4101Y-2.887
X7.4213Y-3.0807
X7.4213Y-3.0807
X7.4213Y-3.0807
X7.4281Y-3.6716
X7.4281Y-4.214
X7.4311Y-4.3996
X7.4557Y-4.8474
X7.4766Y-2.8445
X7.4766Y-2.8839
X7.4766Y-2.9232
X7.4766Y-3.1217
X7.4803Y-4.8228
X7.5049Y-4.7982
X7.5226Y-4.4453
X7.5252Y-3.1142
X7.5266Y-2.4341
X7.5266Y-2.4719
X7.5266Y-2.5098
X7.5394Y-5.0787
X7.5408Y-3.2471
X7.5481Y-4.3225
X7.5657Y-3.1136
X7.5674Y-3.4646
X7.5705Y-3.3637
X7.5713Y-2.6551
X7.5763Y-5.4454
X7.5787Y-2.372
X7.5984Y-4.2815
X7.6004Y-3.0687
X7.6208Y-5.1897
X7.6233Y-3.1444
X7.6354Y-4.2815
X7.6393Y-3.4285
X7.6476Y-4.6555
X7.6585Y-2.9429
X7.6636Y-3.1413
X7.6649Y-4.3593
X7.6722Y-4.6309
X7.6737Y-3.1057
X7.6772Y-3.4744
X7.6772Y-3.5114
X7.6969Y-4.6063
X7.7264Y-5.7776
X7.7264Y-5.8071
X7.7264Y-5.8661
X7.7461Y-5.9449
X7.7559Y-4.311
X7.7657Y-5.8661
X7.7672Y-4.3504
X7.7696Y-3.5177
X7.7854Y-5.0394
X7.7953Y-3.2579
X7.8051Y-5.8661
X7.8132Y-3.1194
X7.815Y-2.4311
X7.815Y-2.5098
X7.815Y-2.5886
X7.815Y-2.6673
X7.8248Y-4.9213
X7.8248Y-5.9449
X7.8445Y-5.1378
X7.8445Y-5.1969
X7.8445Y-5.2362
X7.8445Y-5.2756
X7.8484Y-3.5078
X7.8543Y-4.9508
X7.8595Y-3.1657
X7.8673Y-3.1046
X7.8839Y-4.9803
X7.8937Y-2.4311
X7.8937Y-2.5098
X7.8937Y-2.5886
X7.8937Y-2.6673
X7.8937Y-2.7461
X7.9035Y-5.9449
X7.9134Y-3.1102
X7.9134Y-3.1496
X7.9134Y-3.189
X7.9331Y-3.2972
X7.9331Y-5.3937
X7.9331Y-5.4232
X7.9558Y-3.0472
X7.9724Y-2.4311
X7.9724Y-2.5098
X7.9724Y-2.5886
X7.9724Y-2.6673
X7.9724Y-2.7461
X7.9724Y-2.8248
X7.9739Y-5.2687
X7.9773Y-3.4991
X7.9823Y-3.4154
X7.9823Y-5.9449
X8.002Y-3.4744
X8.0266Y-3.4498
X8.0512Y-2.4311
X8.0512Y-2.5098
X8.0512Y-2.5886
X8.0512Y-2.6673
X8.0512Y-2.7461
X8.0512Y-2.8248
X8.061Y-4.9409
X8.061Y-5.9449
X8.0709Y-3.8484
X8.0709Y-3.8878
X8.0709Y-3.9272
X8.0905Y-5.128
X8.0906Y-4.8622
X8.0906Y-5.2067
X8.1004Y-4.9409
X8.1299Y-2.4311
X8.1299Y-2.5098
X8.1299Y-2.5886
X8.1299Y-2.6673
X8.1299Y-2.7461
X8.1299Y-4.8622
X8.1398Y-4.9409
X8.1398Y-5.9449
X8.1495Y-3.2785
X8.1693Y-4.0453
X8.1693Y-4.124
X8.1693Y-4.2028
X8.1693Y-4.2815
X8.1693Y-4.3602
X8.1693Y-4.8622
X8.1988Y-3.4055
X8.2006Y-5.1068
X8.2087Y-5.2461
X8.2185Y-2.9626
X8.2185Y-3.002
X8.2185Y-3.0413
X8.2185Y-5.9449
X8.2283Y-3.1299
X8.248Y-4.0453
X8.248Y-4.124
X8.248Y-4.2028
X8.248Y-4.2815
X8.248Y-4.3602
X8.248Y-5.2461
X8.2677Y-3.3661
X8.2874Y-5.2461
X8.2972Y-5.9449
X8.3071Y-3.3661
X8.3072Y-5.1561
X8.3268Y-4.0453
X8.3268Y-4.124
X8.3268Y-4.2028
X8.3268Y-4.2815
X8.3268Y-4.3602
X8.3465Y-3.3661
X8.376Y-5.9449
X8.4055Y-4.0453
X8.4055Y-4.124
X8.4055Y-4.2028
X8.4055Y-4.2815
X8.4055Y-4.3602
X8.4547Y-5.9449
X8.4843Y-4.0453
X8.4843Y-4.124
X8.4843Y-4.2028
X8.4843Y-4.2815
X8.4843Y-4.3602
X8.6417Y-4.1713
X8.6575Y-5.998
T4
X3.3745Y-3.1166
X3.3745Y-3.3095
T5
X8.2677Y-2.774
X8.2677Y-2.874
X8.2677Y-4.6244
X8.2677Y-4.7244
X8.2677Y-5.4512
X8.2677Y-5.5512
X8.2677Y-3.6008
X8.2677Y-3.7008
T6
X2.5984Y-3.8386
X2.5984Y-4.0157
T8
X2.6965Y-3.789
X2.6965Y-4.065
T9
X8.4677Y-3.5008
X8.4677Y-3.9008
X8.4677Y-2.674
X8.4677Y-3.074
X8.4677Y-4.5244
X8.4677Y-4.9244
X8.4677Y-5.3512
X8.4677Y-5.7512
T2
X2.6648Y-2.6892G85X2.6805Y-2.6892
G05
X2.6648Y-2.8797G85X2.6805Y-2.8797
G05
T3
X2.5447Y-2.677G85X2.5644Y-2.677
G05
X2.5447Y-2.8919G85X2.5644Y-2.8919
G05
T7
X2.6673Y-3.2874G85X2.6083Y-3.2874
G05
X2.6673Y-3.6417G85X2.6083Y-3.6417
G05
X2.6772Y-3.439G85X2.6772Y-3.4902
G05
X2.9134Y-3.4252G85X2.9134Y-3.5039
G05
T0
M30
